<svg xmlns="http://www.w3.org/2000/svg" viewBox="0 0 256 256">
  <rect width="256" height="256" rx="42" fill="#fff7ed"/>
  <path d="M36 212c22-48 64-74 92-74s70 26 92 74" fill="#ffedd5"/>
  <ellipse cx="126" cy="118" rx="76" ry="82" fill="#ffe0e0"/>
  <path d="M88 122c6-30 24-52 50-52s44 22 50 52" stroke="#1f1725" stroke-linecap="round" stroke-width="6"/>
  <ellipse cx="102" cy="130" rx="18" ry="20" fill="#ffffff"/>
  <ellipse cx="160" cy="130" rx="18" ry="20" fill="#ffffff"/>
  <circle cx="102" cy="130" r="8" fill="#1f1725"/>
  <circle cx="160" cy="130" r="8" fill="#1f1725"/>
  <path d="M96 160c12 12 34 12 48 0" stroke="#fb7185" stroke-linecap="round" stroke-width="8" fill="none"/>
  <path d="M70 96c20-26 48-42 64-42s40 10 64 42" stroke="#f97316" stroke-width="14" stroke-linecap="round" fill="none"/>
  <path d="M80 188c16 14 40 24 56 24 18 0 40-10 56-24" stroke="#fb923c" stroke-width="10" stroke-linecap="round" fill="none"/>
  <circle cx="68" cy="92" r="12" fill="#22d3ee"/>
  <circle cx="192" cy="92" r="10" fill="#38bdf8"/>
  <path d="M122 186s8 14 16 14 16-14 16-14" stroke="#f97316" stroke-width="8" stroke-linecap="round" fill="none"/>
  <circle cx="128" cy="176" r="10" fill="#fb7185"/>
</svg>
